<?xml version="1.0" encoding="utf-8"?>
<svg xmlns="http://www.w3.org/2000/svg" version="1.1" width="1000" height="800">

<line x1="0" y1="0" x2="1000" y2="0" stroke="lightgrey" />
<text x="5" y="-5" fill="lightgrey" >0</text>
<line x1="0" y1="100" x2="1000" y2="100" stroke="lightgrey" />
<text x="5" y="95" fill="lightgrey" >100</text>
<line x1="0" y1="200" x2="1000" y2="200" stroke="lightgrey" />
<text x="5" y="195" fill="lightgrey" >200</text>
<line x1="0" y1="300" x2="1000" y2="300" stroke="lightgrey" />
<text x="5" y="295" fill="lightgrey" >300</text>
<line x1="0" y1="400" x2="1000" y2="400" stroke="lightgrey" />
<text x="5" y="395" fill="lightgrey" >400</text>
<line x1="0" y1="500" x2="1000" y2="500" stroke="lightgrey" />
<text x="5" y="495" fill="lightgrey" >500</text>
<line x1="0" y1="600" x2="1000" y2="600" stroke="lightgrey" />
<text x="5" y="595" fill="lightgrey" >600</text>
<line x1="0" y1="700" x2="1000" y2="700" stroke="lightgrey" />
<text x="5" y="695" fill="lightgrey" >700</text>
<line x1="0" y1="800" x2="1000" y2="800" stroke="lightgrey" />
<text x="5" y="795" fill="lightgrey" >800</text>
<line x1="0" y1="0" x2="0" y2="800" stroke="lightgrey" />
<text x="5" y="15" fill="lightgrey" >0</text>
<line x1="100" y1="0" x2="100" y2="800" stroke="lightgrey" />
<text x="105" y="15" fill="lightgrey" >100</text>
<line x1="200" y1="0" x2="200" y2="800" stroke="lightgrey" />
<text x="205" y="15" fill="lightgrey" >200</text>
<line x1="300" y1="0" x2="300" y2="800" stroke="lightgrey" />
<text x="305" y="15" fill="lightgrey" >300</text>
<line x1="400" y1="0" x2="400" y2="800" stroke="lightgrey" />
<text x="405" y="15" fill="lightgrey" >400</text>
<line x1="500" y1="0" x2="500" y2="800" stroke="lightgrey" />
<text x="505" y="15" fill="lightgrey" >500</text>
<line x1="600" y1="0" x2="600" y2="800" stroke="lightgrey" />
<text x="605" y="15" fill="lightgrey" >600</text>
<line x1="700" y1="0" x2="700" y2="800" stroke="lightgrey" />
<text x="705" y="15" fill="lightgrey" >700</text>
<line x1="800" y1="0" x2="800" y2="800" stroke="lightgrey" />
<text x="805" y="15" fill="lightgrey" >800</text>
<line x1="900" y1="0" x2="900" y2="800" stroke="lightgrey" />
<text x="905" y="15" fill="lightgrey" >900</text>
<line x1="1000" y1="0" x2="1000" y2="800" stroke="lightgrey" />
<text x="1005" y="15" fill="lightgrey" >1000</text>
<circle cx="300" cy="100" r="5" fill="black" stroke="black" stroke-width="1" />
<text x="300" y="95" fill="black" >A</text>
<circle cx="200" cy="200" r="5" fill="black" stroke="black" stroke-width="1" />
<text x="200" y="195" fill="black" >B</text>
<circle cx="400" cy="200" r="5" fill="black" stroke="black" stroke-width="1" />
<text x="400" y="195" fill="black" >C</text>
<circle cx="300" cy="300" r="5" fill="black" stroke="black" stroke-width="1" />
<text x="300" y="295" fill="black" >D</text>
<circle cx="200" cy="400" r="5" fill="black" stroke="black" stroke-width="1" />
<text x="200" y="395" fill="black" >E</text>
<circle cx="300" cy="400" r="5" fill="black" stroke="black" stroke-width="1" />
<text x="300" y="395" fill="black" >F</text>
<circle cx="400" cy="400" r="5" fill="black" stroke="black" stroke-width="1" />
<text x="400" y="395" fill="black" >G</text>
<circle cx="100" cy="500" r="5" fill="black" stroke="black" stroke-width="1" />
<text x="100" y="495" fill="black" >H</text>
<circle cx="500" cy="500" r="5" fill="black" stroke="black" stroke-width="1" />
<text x="500" y="495" fill="black" >I</text>
<line x1="300" y1="100" x2="200" y2="200" stroke="black" />
<text x="253" y="145" fill="red" >1</text>
<line x1="300" y1="100" x2="400" y2="200" stroke="black" />
<text x="353" y="145" fill="red" >1</text>
<line x1="200" y1="200" x2="300" y2="300" stroke="black" />
<text x="253" y="245" fill="red" >1</text>
<line x1="200" y1="200" x2="100" y2="500" stroke="black" />
<text x="153" y="345" fill="red" >1</text>
<line x1="400" y1="200" x2="300" y2="300" stroke="black" />
<text x="353" y="245" fill="red" >1</text>
<line x1="400" y1="200" x2="500" y2="500" stroke="black" />
<text x="453" y="345" fill="red" >1</text>
<line x1="300" y1="300" x2="200" y2="400" stroke="black" />
<text x="253" y="345" fill="red" >1</text>
<line x1="300" y1="300" x2="400" y2="400" stroke="black" />
<text x="353" y="345" fill="red" >1</text>
<line x1="200" y1="400" x2="300" y2="400" stroke="black" />
<text x="253" y="395" fill="red" >1</text>
<line x1="200" y1="400" x2="100" y2="500" stroke="black" />
<text x="153" y="445" fill="red" >1</text>
<line x1="300" y1="400" x2="400" y2="400" stroke="black" />
<text x="353" y="395" fill="red" >1</text>
<line x1="400" y1="400" x2="500" y2="500" stroke="black" />
<text x="453" y="445" fill="red" >1</text>
<text x="315" y="100" fill="green" >2</text>
<text x="330" y="100" fill="green" >0.25</text>
<text x="315" y="120" fill="green" >0.69</text>
<text x="350" y="120" fill="green" >0.24</text>
<text x="315" y="140" fill="green" >0.06</text>
<text x="350" y="140" fill="green" >0.44</text>
<circle cx="300" cy="100" r="5" fill="yellow" stroke="yellow" stroke-width="1" />
<text x="215" y="200" fill="green" >3</text>
<text x="230" y="200" fill="green" >0.38</text>
<text x="215" y="220" fill="green" >1.03</text>
<text x="250" y="220" fill="green" >0.36</text>
<text x="215" y="240" fill="green" >0.07</text>
<text x="250" y="240" fill="green" >0.53</text>
<circle cx="200" cy="200" r="5" fill="magenta" stroke="magenta" stroke-width="1" />
<text x="415" y="200" fill="green" >3</text>
<text x="430" y="200" fill="green" >0.38</text>
<text x="415" y="220" fill="green" >1.03</text>
<text x="450" y="220" fill="green" >0.36</text>
<text x="415" y="240" fill="green" >0.07</text>
<text x="450" y="240" fill="green" >0.53</text>
<circle cx="400" cy="200" r="5" fill="magenta" stroke="magenta" stroke-width="1" />
<text x="315" y="300" fill="green" >4</text>
<text x="330" y="300" fill="green" >0.5</text>
<text x="315" y="320" fill="green" >1.37</text>
<text x="350" y="320" fill="green" >0.49</text>
<text x="315" y="340" fill="green" >0.08</text>
<text x="350" y="340" fill="green" >0.67</text>
<circle cx="300" cy="300" r="5" fill="red" stroke="red" stroke-width="1" />
<text x="215" y="400" fill="green" >3</text>
<text x="230" y="400" fill="green" >0.38</text>
<text x="215" y="420" fill="green" >1.03</text>
<text x="250" y="420" fill="green" >0.36</text>
<text x="215" y="440" fill="green" >0.07</text>
<text x="250" y="440" fill="green" >0.53</text>
<circle cx="200" cy="400" r="5" fill="magenta" stroke="magenta" stroke-width="1" />
<text x="315" y="400" fill="green" >2</text>
<text x="330" y="400" fill="green" >0.25</text>
<text x="315" y="420" fill="green" >0.69</text>
<text x="350" y="420" fill="green" >0.24</text>
<text x="315" y="440" fill="green" >0.06</text>
<text x="350" y="440" fill="green" >0.44</text>
<circle cx="300" cy="400" r="5" fill="yellow" stroke="yellow" stroke-width="1" />
<text x="415" y="400" fill="green" >3</text>
<text x="430" y="400" fill="green" >0.38</text>
<text x="415" y="420" fill="green" >1.03</text>
<text x="450" y="420" fill="green" >0.36</text>
<text x="415" y="440" fill="green" >0.07</text>
<text x="450" y="440" fill="green" >0.53</text>
<circle cx="400" cy="400" r="5" fill="magenta" stroke="magenta" stroke-width="1" />
<text x="115" y="500" fill="green" >2</text>
<text x="130" y="500" fill="green" >0.25</text>
<text x="115" y="520" fill="green" >0.69</text>
<text x="150" y="520" fill="green" >0.24</text>
<text x="115" y="540" fill="green" >0.06</text>
<text x="150" y="540" fill="green" >0.44</text>
<circle cx="100" cy="500" r="5" fill="yellow" stroke="yellow" stroke-width="1" />
<text x="515" y="500" fill="green" >2</text>
<text x="530" y="500" fill="green" >0.25</text>
<text x="515" y="520" fill="green" >0.69</text>
<text x="550" y="520" fill="green" >0.24</text>
<text x="515" y="540" fill="green" >0.06</text>
<text x="550" y="540" fill="green" >0.44</text>
<circle cx="500" cy="500" r="5" fill="yellow" stroke="yellow" stroke-width="1" />


</svg>
